PathFileType	4	(X/Y/Z)	/Users/niels/Desktop/University/Third Semester/Perception and Action/Exam/Gymnastics Motion Tracking/Code for Gym Tracking/Scripts/Analyzed Data/Start Salto/st_salto_good_id1_1_Sports2D/st_salto_good_id1_1_Sports2D_px_person00.trc
DataRate	CameraRate	NumFrames	NumMarkers	Units	OrigDataRate	OrigDataStartFrame	OrigNumFrames
29.763779527559056	29.763779527559056	8	22	m	29.763779527559056	0	127
Frame#	Time	Hip			RHip			RKnee			RAnkle			RBigToe			RSmallToe			RHeel			LHip			LKnee			LAnkle			LBigToe			LSmallToe			LHeel			Neck			Head			Nose			RShoulder			RElbow			RWrist			LShoulder			LElbow			LWrist		
		X1	Y1	Z1	X2	Y2	Z2	X3	Y3	Z3	X4	Y4	Z4	X5	Y5	Z5	X6	Y6	Z6	X7	Y7	Z7	X8	Y8	Z8	X9	Y9	Z9	X10	Y10	Z10	X11	Y11	Z11	X12	Y12	Z12	X13	Y13	Z13	X14	Y14	Z14	X15	Y15	Z15	X16	Y16	Z16	X17	Y17	Z17	X18	Y18	Z18	X19	Y19	Z19	X20	Y20	Z20	X21	Y21	Z21	X22	Y22	Z22
0	0.0	-0.1828513260195515	-0.5101833695416834	0.0	-0.017837255417207074	-0.6049079199423929	0.0	-0.47421526516733375	-0.4926773636875523	0.0	-0.5613738319413943	-0.7426202556758406	0.0	-0.4792110260643034	-0.7122231727049979	0.0	-0.5350564433596955	-0.7230655721173641	0.0	-0.6215826573268688	-0.7541670153628903	0.0	-0.20950718948600838	-0.5814758496984708	0.0	-0.055192280929901825	0.1504393220478263	0.0	-0.5624642903339987	-0.7228602570707207	0.0	-0.4084848545522537	-0.7063287627276635	0.0	-0.4782010346311095	-0.6943445278770368	0.0	-0.6258067921911734	-0.6533812490255752	0.0	-0.37996577249622115	-0.31070967765747687	0.0	-0.48336886345505575	-0.21627185299559443	0.0	-0.38764202838389905	-0.2852349309252489	0.0	0.04477652742756791	-2.001601239968389	0.0	-0.5144473399218515	-1.6341185953595727	0.0	0.10607237159799372	-1.515424887353573	0.0	-0.24008455736205547	-1.9528403391469598	0.0	-0.5426204632652136	-1.757994975886784	0.0	-0.7303728271038283	-2.6686842057347837	0.0
1	0.0335978835978836	-0.16140283164053987	-0.5084846788589887	0.0	-0.015985194877672804	-0.592415981061742	0.0	-0.40420716095920084	-0.5008832348425141	0.0	-0.4751176070991468	-0.7375373708132975	0.0	-0.3959012210051235	-0.7110478504594766	0.0	-0.4462004591295645	-0.7218822084939002	0.0	-0.5277802581911579	-0.7503110845838187	0.0	-0.18398257014735817	-0.5719424149027182	0.0	-0.04681868903099348	0.048330708525096334	0.0	-0.47337543726808756	-0.7200760127054374	0.0	-0.33263372160029064	-0.7053166293520384	0.0	-0.3938009296523337	-0.6955855762110017	0.0	-0.5292611504968315	-0.6642710158183498	0.0	-0.33155838274399824	-0.3115604126867407	0.0	-0.41750441569421515	-0.2193255313997359	0.0	-0.33148964877951204	-0.28696203852316293	0.0	0.038412294902981405	-1.788483437907801	0.0	-0.43747224269688834	-1.477239785822961	0.0	0.0962781993039125	-1.3994530399667708	0.0	-0.205352313104896	-1.746681398718119	0.0	-0.4628985057610635	-1.5820581128740339	0.0	-0.6182870376621414	-2.381191961265724	0.0
2	0.0671957671957672	-0.1403555794494615	-0.5067574062882855	0.0	-0.01462508811506275	-0.5798228559247542	0.0	-0.3343116181656682	-0.5090163572882475	0.0	-0.38892909383732915	-0.7323133154757963	0.0	-0.31265475594515324	-0.7097341165045004	0.0	-0.357368211079538	-0.7205546525671831	0.0	-0.43400964051836294	-0.7463222999119127	0.0	-0.15887245915271045	-0.5623338231115067	0.0	-0.03904222884020175	-0.05437351351864447	0.0	-0.38500834118966965	-0.7170908879781259	0.0	-0.2570965541952908	-0.7042761979581175	0.0	-0.30965899234666727	-0.696806395993089	0.0	-0.4334076299215933	-0.6748991330776348	0.0	-0.2835183760902523	-0.31233483776892146	0.0	-0.3519525618396761	-0.2222998722522078	0.0	-0.275663816362646	-0.2886081541043852	0.0	0.03135079253253809	-1.5742029410713583	0.0	-0.36043594283556857	-1.3194337839244987	0.0	0.08605592336877585	-1.282712277273675	0.0	-0.17098577856746786	-1.5393880754875215	0.0	-0.3831367444966988	-1.4050520720643662	0.0	-0.5059184199824729	-2.0919968793608237	0.0
3	0.1007936507936508	-0.11973906438675658	-0.504945529765488	0.0	-0.013880698566560296	-0.5670275458061969	0.0	-0.26442402015685534	-0.5170580267274398	0.0	-0.30270046734631456	-0.7269183953266577	0.0	-0.22935294840640705	-0.7082426856963799	0.0	-0.26842509620066174	-0.7190413164725299	0.0	-0.340163405646683	-0.7421824143168148	0.0	-0.13417923068845453	-0.552565119603782	0.0	-0.03171067887144388	-0.15761905826420983	0.0	-0.29795566992203454	-0.7139063183974957	0.0	-0.18224572385447996	-0.703434331992737	0.0	-0.22614254646788068	-0.6981980092387257	0.0	-0.33888445745327067	-0.6851506193128425	0.0	-0.23571657060066686	-0.3130141738827474	0.0	-0.2865190888325154	-0.22518271665629222	0.0	-0.22000164493943192	-0.29015737723205104	0.0	0.023547490611977983	-1.3585947476390048	0.0	-0.2837109424797978	-1.1604263207503176	0.0	0.07508677923586013	-1.1644864004683604	0.0	-0.13686572547465	-1.3308662903338782	0.0	-0.30323420265379214	-1.2269295479644808	0.0	-0.3931901306597213	-1.8010398431686276	0.0
4	0.1343915343915344	-0.0994380816685281	-0.5029762318405798	0.0	-0.01365910843351447	-0.5539718795886437	0.0	-0.19465728155304104	-0.5249726730158909	0.0	-0.2166808437001823	-0.7214304672303888	0.0	-0.14618194098015458	-0.7066021417604132	0.0	-0.17958772695315264	-0.7173692084115472	0.0	-0.24657383295149762	-0.737984229255342	0.0	-0.10974896529214286	-0.5425766920801576	0.0	-0.024075602638384756	-0.26018992080072784	0.0	-0.21376845342444287	-0.7106515641582957	0.0	-0.1091204855002095	-0.7033300643232785	0.0	-0.14437735549735728	-0.700198566016488	0.0	-0.24740744469229137	-0.6947973155815647	0.0	-0.18789703960364	-0.3136111277833752	0.0	-0.22094472833431872	-0.2279908451162547	0.0	-0.1642478930869721	-0.2916267223222378	0.0	0.015438495338653588	-1.1435552792697106	0.0	-0.20861639182327446	-1.0013470468602321	0.0	0.06312916271719655	-1.0445150418451972	0.0	-0.10266468606210322	-1.123107594928472	0.0	-0.22348362112609438	-1.049535362043579	0.0	-0.2808395363881654	-1.5113462261899326	0.0
5	0.167989417989418	-0.07901299052948607	-0.5007796664348444	0.0	-0.013398188279438799	-0.5407112779469591	0.0	-0.1254105080780006	-0.5327275878775225	0.0	-0.13161217047015517	-0.7161236764552293	0.0	-0.06374671732261442	-0.7049839915873468	0.0	-0.09157042964556987	-0.7157112130611919	0.0	-0.1541917271755247	-0.7340175878925776	0.0	-0.08509122944446458	-0.5323877459399087	0.0	-0.014429655702800031	-0.35911722235891247	0.0	-0.13502723581688195	-0.70767739381073	0.0	-0.039491966849345264	-0.7048894462593407	0.0	-0.06636426795865356	-0.7035495506682691	0.0	-0.16188211786223583	-0.7035304449170395	0.0	-0.13955379811328572	-0.3142084249898794	0.0	-0.15483243176928918	-0.23080721177666533	0.0	-0.1079626910835036	-0.29310586244323783	0.0	0.008321950567514119	-0.9341907845443078	0.0	-0.13769237642738438	-0.8455928942430659	0.0	0.05026431358028063	-0.9235509569173311	0.0	-0.06768936810913978	-0.9213231721917302	0.0	-0.14474745793653115	-0.8776364845316547	0.0	-0.17081584918528256	-1.2306904179123004	0.0
6	0.2015873015873016	-0.057492938802538404	-0.49833622707598163	0.0	-0.011763239594911254	-0.5275214182651097	0.0	-0.05739110420756067	-0.5403348025902097	0.0	-0.04878479780213646	-0.7115562880242404	0.0	0.016874884591225586	-0.7037914144824714	0.0	-0.0056692036179605025	-0.7144785099797197	0.0	-0.06466545687375587	-0.7308482747100878	0.0	-0.05918215240632509	-0.5221815806980656	0.0	0.00011801759337345926	-0.4493616174302588	0.0	-0.06481707904599204	-0.705642612919085	0.0	0.024440712927530885	-0.709336182542055	0.0	0.005290162775531561	-0.7092178435373332	0.0	-0.0858737027666436	-0.7111069441209111	0.0	-0.08983266606465057	-0.3150056976442246	0.0	-0.08761164262667381	-0.23382552054886555	0.0	-0.05046170025881523	-0.2948045535484737	0.0	0.004717336639769243	-0.7395823903889511	0.0	-0.07457898693555838	-0.6995041694737377	0.0	0.03728786121835151	-0.8041358177065949	0.0	-0.030769612227875574	-0.7346593411920445	0.0	-0.0685568484420189	-0.7195659222232792	0.0	-0.06650428666454404	-0.9726187493230666	0.0
7	0.2351851851851852	-0.03323781911768714	-0.495759466746669	0.0	-0.006418700533415897	-0.5150216201259568	0.0	0.008482008847194168	-0.5479171913490974	0.0	0.030123023405810117	-0.7086015176510339	0.0	0.09424962241635378	-0.7037236325966122	0.0	0.07635024405605315	-0.7143894896926617	0.0	0.019854473720693277	-0.7293317460101866	0.0	-0.030354660314363475	-0.5124117605441891	0.0	0.023407377288492463	-0.5243208727083807	0.0	-0.005197597872106519	-0.7055239444159932	0.0	0.08100876190520771	-0.717782610396978	0.0	0.06835820772203743	-0.7180597396719787	0.0	-0.02196927172362746	-0.7176511212792213	0.0	-0.03755619990439975	-0.3163560027518611	0.0	-0.018612741721339296	-0.23738358216679498	0.0	0.009128441089353812	-0.2970877420556547	0.0	0.00844203645652939	-0.5721997781921129	0.0	-0.023062854914669	-0.5721946615650542	0.0	0.02619837729818727	-0.6913933369995053	0.0	0.009674044684035224	-0.5755124056554808	0.0	0.0030273069119239825	-0.5865829700171369	0.0	0.027586780784498884	-0.7553694905985013	0.0
